PathFileType	4	(x/y/z)	S01_M20_T14.trc
DataRate	CameraRate	NumFrames	NumMarkers	Units	OrigDataRate	OrigDataStartFrame	OrigNumFrames
240	240	7	51	mm	240	364	485
Frame#	Time	Sternum			R.Acromium			L.Acromium			Top.Head			R.ASIS			L.ASIS			R.PSIS			L.PSIS			R.Great.Tro			L.Great.Tro			R.Iliac.Crest			L.Iliac.Crest			V.Sacral			R.Thigh.Upper.Post			R.Thigh.Lower.Ant			R.Thigh.Lower.Post			R.Thigh.Upper.Ant			R.Knee.Lat			R.Knee.Med			R.Shank.Upper.Post			R.Shank.Lower.Ant			R.Shank.Lower.Post			R.Shank.Upper.Ant			R.Ankle.Lat			R.Ankle.Med			R.Heel.Upper			R.Heel.Med			R.Heel.Lat			R.Toe.Lat			R.Toe.Med			R.Toe.Tip			L.Thigh.Upper.Post			L.Thigh.Lower.Ant			L.Thigh.Lower.Post			L.Thigh.Upper.Ant			L.Knee.Lat			L.Knee.Med			L.Shank.Upper.Post			L.Shank.Lower.Ant			L.Shank.Lower.Post			L.Shank.Upper.Ant			L.Ankle.Lat			L.Ankle.Med			L.Heel.Upper			L.Heel.Med			L.Heel.Lat			L.Toe.Lat			L.Toe.Med			L.Toe.Tip			Cervical.Spine			Back			
		X1	Y1	Z1	X2	Y2	Z2	X3	Y3	Z3	X4	Y4	Z4	X5	Y5	Z5	X6	Y6	Z6	X7	Y7	Z7	X8	Y8	Z8	X9	Y9	Z9	X10	Y10	Z10	X11	Y11	Z11	X12	Y12	Z12	X13	Y13	Z13	X14	Y14	Z14	X15	Y15	Z15	X16	Y16	Z16	X17	Y17	Z17	X18	Y18	Z18	X19	Y19	Z19	X20	Y20	Z20	X21	Y21	Z21	X22	Y22	Z22	X23	Y23	Z23	X24	Y24	Z24	X25	Y25	Z25	X26	Y26	Z26	X27	Y27	Z27	X28	Y28	Z28	X29	Y29	Z29	X30	Y30	Z30	X31	Y31	Z31	X32	Y32	Z32	X33	Y33	Z33	X34	Y34	Z34	X35	Y35	Z35	X36	Y36	Z36	X37	Y37	Z37	X38	Y38	Z38	X39	Y39	Z39	X40	Y40	Z40	X41	Y41	Z41	X42	Y42	Z42	X43	Y43	Z43	X44	Y44	Z44	X45	Y45	Z45	X46	Y46	Z46	X47	Y47	Z47	X48	Y48	Z48	X49	Y49	Z49	X50	Y50	Z50	X51	Y51	Z51	

364	1.5125	571.53	1293	221.81	461.52	1555.9	379.26	453.76	1557	51.171	557.55	1852.4	187.73	515.05	1048.1	388.04	525.86	1038.2	121.49	283.5	1091.6	289.36	282.84	1090.6	184.92	438.03	1000.4	472.52	421.19	992.49	43.513	429.05	1154.7	444.47	419.63	1117.8	40.508	268.17	1055.2	234.34	534.94	702.94	465.06	626.21	659.47	444.23	567.93	621.29	446.77	595.75	743.88	459.74	597.01	567.55	446.27	614.61	567.87	298.24	492.11	438.43	451.93	528.64	338.88	418.61	467.68	373.49	438.61	550.09	407.08	438.11	406.67	177.2	398.5	455.69	172.57	313.88	342.66	167.11	326.49	354.45	134.84	298.85	338.09	134.57	361.61	500.65	66.998	450.41	554.35	66.12	337.17	609.79	69.06	402.48	377.64	710.47	74.938	460.1	637.02	76.308	384.71	621.32	94.244	444.56	728.61	54.467	430.51	533.47	89.276	454.36	539.66	228.98	366.79	395.47	75.797	422.8	303.42	103.43	363.16	317.63	82.93	427.27	379.76	92.328	338.02	106.07	127.2	364	119.46	223.29	266.4	77.061	175.13	276.89	53.271	209.86	274.54	49.669	147.28	484.29	39.192	111.93	510.58	49.798	233.23	573.62	57.398	181.37	380.42	1616.4	216.25	277.36	1307.3	243.25
365	1.5167	576.22	1292.8	221.68	466.21	1555.6	379.24	458.45	1556.8	51.133	561.91	1852.3	187.93	519.81	1047.9	387.96	530.34	1037.8	121.41	288.19	1091.4	289.53	287.34	1090.5	185.08	443.01	1000.3	472.54	425.46	992.27	43.552	433.89	1154.6	444.39	423.89	1117.5	40.484	272.75	1055.1	234.52	540.79	703.07	464.7	632.23	660.11	443.73	574.17	621.63	446.2	601.38	744.32	459.42	603.76	568.16	445.66	621.38	568.69	297.69	501.13	437.18	451.54	539.6	338.25	418.42	477.96	371.76	438.37	559.69	406.91	437.81	420.81	174.15	398.51	470.05	170.24	313.96	357.11	162.37	326.46	369.67	130.23	299	353.19	129.91	361.69	517.07	66.299	451.01	570.96	66.031	337.87	626.24	70.471	403.26	380.28	710.65	74.942	462.32	636.74	76.283	386.86	621.45	94.186	447.33	728.4	54.429	432.04	533.29	89.161	455.98	539.28	228.93	367.85	395.46	75.72	423.56	303.25	103.39	363.94	317.62	82.887	428.3	379.53	92.253	338.09	106.16	127.29	364.19	119.47	223.38	266.45	77.128	175.22	276.95	53.306	209.93	274.57	49.762	147.34	484.32	39.182	111.93	510.62	49.691	233.24	573.65	57.27	181.37	385.08	1616.2	216.25	282.06	1307	243.22
366	1.5208	580.92	1292.4	221.57	470.92	1555.2	379.24	463.13	1556.6	51.107	566.29	1852.2	188.15	524.57	1047.6	387.9	534.82	1037.4	121.34	292.87	1091.2	289.72	291.83	1090.4	185.25	447.97	1000.2	472.58	429.73	992.04	43.596	438.71	1154.4	444.33	428.12	1117.1	40.478	277.34	1054.9	234.72	546.57	703.13	464.31	638.19	660.69	443.23	580.34	621.9	445.6	606.95	744.68	459.11	610.47	568.72	445.03	628.12	569.46	297.12	510.18	435.91	451.16	550.55	337.65	418.21	488.26	370.04	438.14	569.29	406.73	437.48	434.98	171.2	398.52	484.4	168.02	314.03	371.61	157.74	326.48	384.93	125.77	299.19	368.35	125.37	361.8	533.47	65.726	451.59	587.5	66.073	338.54	642.62	72	403.98	382.94	710.81	74.947	464.57	636.45	76.268	389.02	621.57	94.131	450.12	728.17	54.394	433.6	533.1	89.052	457.61	538.89	228.88	368.92	395.46	75.645	424.32	303.07	103.35	364.73	317.6	82.846	429.34	379.31	92.183	338.17	106.25	127.39	364.39	119.47	223.47	266.5	77.197	175.32	277.01	53.341	210	274.61	49.857	147.4	484.35	39.174	111.92	510.65	49.584	233.26	573.67	57.144	181.38	389.76	1615.9	216.26	286.76	1306.8	243.22
367	1.525	585.62	1292.1	221.47	475.65	1554.8	379.24	467.8	1556.4	51.092	570.71	1852	188.37	529.31	1047.3	387.85	539.3	1037	121.28	297.55	1090.9	289.92	296.32	1090.2	185.44	452.91	999.97	472.61	433.98	991.78	43.644	443.52	1154.1	444.29	432.32	1116.7	40.489	281.92	1054.7	234.92	552.29	703.13	463.91	644.09	661.19	442.73	586.44	622.1	444.98	612.46	744.97	458.8	617.14	569.23	444.38	634.83	570.2	296.54	519.26	434.62	450.78	561.51	337.07	417.98	498.58	368.32	437.92	578.87	406.56	437.13	449.2	168.34	398.56	498.73	165.9	314.11	386.16	153.23	326.54	400.21	121.44	299.4	383.56	120.97	361.95	549.84	65.281	452.13	603.96	66.251	339.15	658.91	73.649	404.63	385.63	710.95	74.953	466.84	636.15	76.261	391.22	621.68	94.079	452.93	727.92	54.362	435.19	532.9	88.947	459.26	538.49	228.85	370.02	395.45	75.572	425.1	302.89	103.32	365.53	317.59	82.806	430.4	379.08	92.116	338.24	106.34	127.48	364.58	119.47	223.57	266.55	77.267	175.41	277.07	53.377	210.06	274.64	49.954	147.46	484.38	39.167	111.92	510.69	49.475	233.27	573.7	57.018	181.38	394.46	1615.6	216.28	291.45	1306.5	243.24
368	1.5292	590.31	1291.7	221.38	480.41	1554.4	379.26	472.47	1556.1	51.089	575.16	1851.8	188.6	534.05	1047	387.82	543.79	1036.5	121.24	302.22	1090.6	290.13	300.82	1090	185.64	457.82	999.72	472.66	438.22	991.51	43.694	448.32	1153.7	444.28	436.52	1116.2	40.517	286.49	1054.4	235.14	557.96	703.05	463.5	649.92	661.63	442.22	592.49	622.24	444.35	617.92	745.18	458.51	623.77	569.68	443.72	641.51	570.88	295.94	528.36	433.31	450.41	572.46	336.51	417.74	508.92	366.6	437.71	588.45	406.38	436.78	463.44	165.58	398.61	513.04	163.89	314.18	400.75	148.84	326.65	415.51	117.25	299.64	398.81	116.7	362.14	566.2	64.963	452.63	620.35	66.566	339.71	675.12	75.417	405.2	388.33	711.07	74.96	469.13	635.83	76.262	393.43	621.77	94.028	455.76	727.65	54.331	436.79	532.69	88.847	460.93	538.08	228.81	371.13	395.45	75.502	425.89	302.7	103.28	366.35	317.59	82.765	431.47	378.85	92.051	338.32	106.44	127.58	364.77	119.47	223.66	266.6	77.339	175.5	277.13	53.414	210.13	274.67	50.053	147.52	484.41	39.161	111.92	510.73	49.365	233.29	573.72	56.895	181.39	399.17	1615.3	216.32	296.15	1306.1	243.28
369	1.5333	595	1291.3	221.3	485.18	1553.9	379.29	477.14	1555.8	51.099	579.64	1851.5	188.85	538.79	1046.5	387.8	548.27	1036.1	121.2	306.9	1090.2	290.36	305.32	1089.7	185.86	462.71	999.41	472.71	442.45	991.23	43.745	453.09	1153.4	444.29	440.72	1115.8	40.561	291.06	1054.1	235.37	563.57	702.91	463.07	655.7	661.99	441.72	598.49	622.32	443.71	623.32	745.33	458.22	630.37	570.09	443.04	648.16	571.53	295.33	537.49	432	450.05	583.4	335.98	417.49	519.28	364.9	437.5	598.03	406.2	436.4	477.71	162.93	398.68	527.32	161.99	314.26	415.37	144.57	326.81	430.82	113.22	299.92	414.1	112.58	362.36	582.53	64.772	453.08	636.65	67.022	340.2	691.24	77.304	405.67	391.05	711.18	74.965	471.44	635.5	76.27	395.67	621.84	93.978	458.62	727.37	54.302	438.42	532.48	88.749	462.63	537.67	228.78	372.25	395.44	75.434	426.68	302.5	103.25	367.18	317.58	82.721	432.55	378.61	91.988	338.39	106.53	127.67	364.96	119.47	223.76	266.65	77.412	175.6	277.18	53.453	210.2	274.71	50.154	147.59	484.43	39.156	111.92	510.76	49.254	233.3	573.75	56.772	181.4	403.89	1614.9	216.37	300.84	1305.8	243.34
370	1.5375	599.69	1290.8	221.24	489.98	1553.4	379.34	481.8	1555.4	51.122	584.16	1851.2	189.1	543.53	1046.1	387.79	552.75	1035.6	121.17	311.57	1089.9	290.59	309.82	1089.4	186.09	467.59	999.04	472.76	446.66	990.92	43.795	457.86	1152.9	444.32	444.94	1115.3	40.619	295.64	1053.8	235.61	569.13	702.71	462.63	661.43	662.29	441.22	604.44	622.33	443.07	628.67	745.41	457.95	636.94	570.44	442.35	654.77	572.12	294.7	546.65	430.68	449.71	594.33	335.49	417.23	529.66	363.21	437.3	607.59	406.02	436.02	492	160.38	398.76	541.56	160.2	314.33	430.01	140.44	327.02	446.13	109.33	300.22	429.42	108.59	362.63	598.84	64.707	453.48	652.86	67.619	340.62	707.26	79.31	406.04	393.79	711.26	74.97	473.77	635.16	76.285	397.93	621.91	93.929	461.5	727.07	54.274	440.07	532.26	88.653	464.34	537.24	228.75	373.39	395.43	75.367	427.48	302.3	103.22	368.03	317.59	82.673	433.65	378.38	91.926	338.45	106.63	127.77	365.14	119.47	223.87	266.69	77.487	175.69	277.23	53.493	210.26	274.74	50.257	147.65	484.46	39.152	111.92	510.8	49.143	233.32	573.78	56.651	181.41	408.64	1614.5	216.44	305.53	1305.4	243.43
